<?xml version="1.0" standalone="no"?>
<!DOCTYPE svg PUBLIC "-//W3C//DTD SVG 20010904//EN"
 "http://www.w3.org/TR/2001/REC-SVG-20010904/DTD/svg10.dtd">
<svg version="1.0" xmlns="http://www.w3.org/2000/svg"
 width="774.000000pt" height="295.000000pt" viewBox="0 0 774.000000 295.000000"
 preserveAspectRatio="xMidYMid meet">

<g transform="translate(0.000000,295.000000) scale(0.100000,-0.100000)"
fill="#f44336" stroke="none">
<path d="M5880 2257 c-19 -6 -55 -32 -80 -57 -58 -58 -80 -125 -80 -243 l0
-86 -77 -3 -78 -3 0 -70 0 -70 77 -3 78 -3 2 -337 3 -337 100 0 100 0 3 337 2
337 93 3 92 3 0 70 0 70 -92 3 -93 3 0 83 c0 70 4 88 23 117 23 33 24 34 95
34 l71 0 5 35 c14 95 12 114 -14 121 -39 11 -191 8 -230 -4z"/>
<path d="M5194 2227 c-2 -7 -4 -54 -2 -103 l3 -89 100 0 100 0 0 100 0 100
-98 3 c-75 2 -99 0 -103 -11z"/>
<path d="M1101 1991 c-15 -27 -15 -985 0 -1012 8 -16 13 -18 25 -8 21 17 21
1011 0 1028 -12 10 -17 8 -25 -8z"/>
<path d="M1207 1883 c-4 -3 -7 -183 -7 -399 0 -386 3 -425 31 -397 11 11 14
777 4 794 -7 11 -19 12 -28 2z"/>
<path d="M2369 1875 c-53 -19 -112 -61 -140 -98 l-24 -32 -5 60 -5 60 -95 0
-95 0 0 -410 0 -410 100 0 100 0 7 255 c8 312 13 337 83 399 29 25 44 31 81
31 50 0 92 -20 115 -54 11 -16 15 -86 19 -326 l5 -305 100 0 100 0 6 265 c6
298 12 325 83 388 63 55 157 41 199 -31 8 -16 13 -109 17 -322 l5 -300 100 0
100 0 3 294 c3 325 -4 381 -56 455 -91 131 -342 123 -437 -14 l-28 -41 -31 44
c-36 51 -76 81 -132 96 -52 14 -130 13 -175 -4z"/>
<path d="M4598 1868 c-123 -38 -188 -120 -188 -234 0 -73 26 -132 72 -167 18
-14 74 -40 123 -58 148 -51 175 -72 175 -129 0 -47 -29 -85 -77 -101 -44 -14
-142 -7 -218 17 -30 10 -57 16 -59 13 -2 -2 -5 -37 -7 -78 l-4 -74 60 -15 c35
-9 107 -15 175 -15 133 -1 198 18 267 78 62 53 86 111 81 193 -7 124 -62 185
-215 236 -134 45 -175 82 -154 139 6 15 25 36 43 48 29 18 44 20 123 16 50 -3
102 -10 117 -16 33 -13 37 -8 44 67 8 71 5 73 -97 91 -96 16 -185 12 -261 -11z"/>
<path d="M3467 1864 c-4 -4 -7 -134 -7 -289 0 -221 3 -293 16 -340 32 -126 89
-181 212 -206 56 -12 72 -11 130 4 67 18 144 60 178 98 19 21 19 21 24 -32 l5
-54 95 0 95 0 0 410 0 410 -100 0 -100 0 -5 -265 c-5 -247 -6 -268 -27 -305
-55 -103 -160 -144 -240 -95 -65 39 -67 54 -73 375 l-5 290 -95 3 c-53 1 -99
0 -103 -4z"/>
<path d="M5195 1858 c-3 -7 -4 -193 -3 -413 l3 -400 100 0 100 0 0 410 0 410
-98 3 c-72 2 -99 -1 -102 -10z"/>
<path d="M6197 1862 c-3 -4 64 -199 149 -432 99 -274 154 -439 154 -464 0 -32
-7 -46 -44 -82 l-43 -44 -81 0 c-91 0 -89 2 -94 -85 -2 -49 -2 -50 32 -62 51
-17 159 -16 215 4 62 21 131 88 166 163 30 62 379 984 379 1000 0 7 -35 10
-101 8 l-101 -3 -100 -304 c-57 -173 -104 -299 -109 -294 -4 4 -53 141 -107
303 l-99 295 -106 3 c-58 1 -108 -1 -110 -6z"/>
<path d="M792 1848 c-9 -9 -12 -106 -12 -359 0 -191 3 -354 6 -363 3 -9 12
-16 19 -16 7 0 16 7 19 16 3 9 6 172 6 364 0 276 -3 350 -13 359 -10 8 -17 7
-25 -1z"/>
<path d="M996 1824 c-3 -9 -6 -166 -6 -349 0 -328 3 -366 32 -337 11 11 25
634 14 675 -7 30 -30 36 -40 11z"/>
<path d="M1415 1808 c-3 -7 -4 -157 -3 -333 3 -277 5 -320 18 -320 13 0 15 43
15 329 0 255 -3 330 -12 333 -7 3 -15 -1 -18 -9z"/>
<path d="M685 1708 c-3 -7 -4 -112 -3 -233 3 -188 5 -220 18 -220 13 0 15 32
15 229 0 175 -3 230 -12 233 -7 3 -15 -1 -18 -9z"/>
<path d="M1312 1698 c-18 -18 -17 -412 1 -427 31 -25 37 9 37 215 0 155 -3
204 -13 213 -10 8 -17 7 -25 -1z"/>
<path d="M895 1688 c-3 -7 -4 -106 -3 -218 3 -174 5 -205 18 -205 13 0 15 30
15 214 0 163 -3 215 -12 218 -7 3 -15 -1 -18 -9z"/>
<path d="M1522 1658 c-19 -19 -17 -331 2 -347 27 -23 36 21 36 176 0 154 -10
199 -38 171z"/>
<path d="M482 1618 c-15 -15 -17 -264 -2 -273 6 -4 17 -1 25 5 20 17 22 252 2
269 -10 8 -17 7 -25 -1z"/>
<path d="M1732 1618 c-18 -18 -16 -252 1 -267 8 -6 17 -8 20 -4 10 9 8 271 -1
277 -5 3 -14 0 -20 -6z"/>
<path d="M1616 1575 c-11 -31 -6 -171 7 -189 11 -16 15 -16 25 -3 9 10 12 45
10 108 -2 77 -6 94 -19 97 -9 2 -19 -4 -23 -13z"/>
<path d="M576 1555 c-11 -31 -6 -121 8 -141 25 -33 37 -5 34 77 -2 59 -6 74
-19 77 -9 2 -19 -4 -23 -13z"/>
<path d="M1832 1538 c-7 -7 -12 -30 -12 -53 0 -23 5 -46 12 -53 19 -19 38 6
38 53 0 47 -19 72 -38 53z"/>
<path d="M374 1517 c-10 -27 0 -72 16 -72 11 0 15 11 15 39 0 40 -20 61 -31
33z"/>
<path d="M1934 1506 c-9 -23 0 -51 16 -51 10 0 15 10 15 29 0 32 -21 47 -31
22z"/>
</g>
</svg>
